<svg width="100" height="100" viewBox="0 0 100 100" xmlns="http://www.w3.org/2000/svg">
  <defs>
    <linearGradient id="frameGradient" x1="0%" y1="0%" x2="100%" y2="100%">
      <stop offset="0%" style="stop-color:#4338CA;stop-opacity:1" />
      <stop offset="100%" style="stop-color:#312E81;stop-opacity:1" />
    </linearGradient>
    <linearGradient id="contentGradient" x1="0%" y1="0%" x2="100%" y2="100%">
      <stop offset="0%" style="stop-color:#6366F1;stop-opacity:1" />
      <stop offset="100%" style="stop-color:#4F46E5;stop-opacity:1" />
    </linearGradient>
  </defs>
  
  <!-- Outer frame -->
  <rect x="5" y="5" width="90" height="90" rx="8" ry="8" fill="url(#frameGradient)" stroke="#1E1B4B" stroke-width="2"/>
  
  <!-- Inner white background -->
  <rect x="12" y="12" width="76" height="76" rx="4" ry="4" fill="white"/>
  
  <!-- House outline -->
  <g fill="none" stroke="url(#frameGradient)" stroke-width="3" stroke-linejoin="round" stroke-linecap="round">
    <!-- House base -->
    <path d="M20 50 L30 35 L40 45 L50 30 L65 45 L75 25"/>
    <!-- Arrow -->
    <path d="M70 30 L75 25 L80 30"/>
    
    <!-- House structure -->
    <path d="M20 50 L20 75 L45 75 L45 50"/>
    <!-- House window -->
    <rect x="25" y="55" width="8" height="8" fill="url(#contentGradient)"/>
    
    <!-- Chart bars -->
    <rect x="50" y="65" width="4" height="10" fill="url(#contentGradient)"/>
    <rect x="56" y="60" width="4" height="15" fill="url(#contentGradient)"/>
    <rect x="62" y="55" width="4" height="20" fill="url(#contentGradient)"/>
    <rect x="68" y="50" width="4" height="25" fill="url(#contentGradient)"/>
    <rect x="74" y="45" width="4" height="30" fill="url(#contentGradient)"/>
  </g>
</svg>